<mxfile host="app.diagrams.net" agent="Mozilla/5.0 (Windows NT 10.0; Win64; x64) AppleWebKit/537.36 (KHTML, like Gecko) Chrome/131.0.0.0 Safari/537.36" version="24.8.8">
  <diagram id="C5RBs43oDa-KdzZeNtuy" name="Page-1">
    <mxGraphModel dx="1070" dy="803" grid="1" gridSize="10" guides="1" tooltips="1" connect="1" arrows="1" fold="1" page="1" pageScale="1" pageWidth="827" pageHeight="1169" math="0" shadow="0">
      <root>
        <mxCell id="WIyWlLk6GJQsqaUBKTNV-0" />
        <mxCell id="WIyWlLk6GJQsqaUBKTNV-1" parent="WIyWlLk6GJQsqaUBKTNV-0" />
        <mxCell id="XqgmH6ZxZvjZEFLUTs9h-1" value="CVedioClientApp" style="swimlane;fontStyle=1;align=center;verticalAlign=top;childLayout=stackLayout;horizontal=1;startSize=26;horizontalStack=0;resizeParent=1;resizeParentMax=0;resizeLast=0;collapsible=1;marginBottom=0;whiteSpace=wrap;html=1;" vertex="1" parent="WIyWlLk6GJQsqaUBKTNV-1">
          <mxGeometry x="350" y="430" width="160" height="60" as="geometry" />
        </mxCell>
        <mxCell id="XqgmH6ZxZvjZEFLUTs9h-3" value="" style="line;strokeWidth=1;fillColor=none;align=left;verticalAlign=middle;spacingTop=-1;spacingLeft=3;spacingRight=3;rotatable=0;labelPosition=right;points=[];portConstraint=eastwest;strokeColor=inherit;" vertex="1" parent="XqgmH6ZxZvjZEFLUTs9h-1">
          <mxGeometry y="26" width="160" height="8" as="geometry" />
        </mxCell>
        <mxCell id="XqgmH6ZxZvjZEFLUTs9h-4" value="+ InitInstance(): BOOL" style="text;strokeColor=none;fillColor=none;align=left;verticalAlign=top;spacingLeft=4;spacingRight=4;overflow=hidden;rotatable=0;points=[[0,0.5],[1,0.5]];portConstraint=eastwest;whiteSpace=wrap;html=1;" vertex="1" parent="XqgmH6ZxZvjZEFLUTs9h-1">
          <mxGeometry y="34" width="160" height="26" as="geometry" />
        </mxCell>
        <mxCell id="XqgmH6ZxZvjZEFLUTs9h-5" value="CVedioClientDlg" style="swimlane;fontStyle=1;align=center;verticalAlign=top;childLayout=stackLayout;horizontal=1;startSize=26;horizontalStack=0;resizeParent=1;resizeParentMax=0;resizeLast=0;collapsible=1;marginBottom=0;whiteSpace=wrap;html=1;" vertex="1" parent="WIyWlLk6GJQsqaUBKTNV-1">
          <mxGeometry x="591" y="620" width="236" height="160" as="geometry" />
        </mxCell>
        <mxCell id="XqgmH6ZxZvjZEFLUTs9h-6" value="+m_controller:&amp;nbsp;&lt;span style=&quot;font-weight: 700; text-align: center;&quot;&gt;CVedioClientController*&lt;/span&gt;" style="text;strokeColor=none;fillColor=none;align=left;verticalAlign=top;spacingLeft=4;spacingRight=4;overflow=hidden;rotatable=0;points=[[0,0.5],[1,0.5]];portConstraint=eastwest;whiteSpace=wrap;html=1;" vertex="1" parent="XqgmH6ZxZvjZEFLUTs9h-5">
          <mxGeometry y="26" width="236" height="26" as="geometry" />
        </mxCell>
        <mxCell id="XqgmH6ZxZvjZEFLUTs9h-7" value="" style="line;strokeWidth=1;fillColor=none;align=left;verticalAlign=middle;spacingTop=-1;spacingLeft=3;spacingRight=3;rotatable=0;labelPosition=right;points=[];portConstraint=eastwest;strokeColor=inherit;" vertex="1" parent="XqgmH6ZxZvjZEFLUTs9h-5">
          <mxGeometry y="52" width="236" height="8" as="geometry" />
        </mxCell>
        <mxCell id="XqgmH6ZxZvjZEFLUTs9h-8" value="+DoModal()&lt;div&gt;#OnInitDialog():BOOL&lt;/div&gt;&lt;div&gt;+OnTimer(nIDEvent:WINT_PTR)&lt;/div&gt;&lt;div&gt;+SetTimer()&lt;/div&gt;&lt;div&gt;+KillTimer(nIDEvent:UINT_PTR)&lt;/div&gt;&lt;div&gt;+OnDestroy()&lt;/div&gt;" style="text;strokeColor=none;fillColor=none;align=left;verticalAlign=top;spacingLeft=4;spacingRight=4;overflow=hidden;rotatable=0;points=[[0,0.5],[1,0.5]];portConstraint=eastwest;whiteSpace=wrap;html=1;" vertex="1" parent="XqgmH6ZxZvjZEFLUTs9h-5">
          <mxGeometry y="60" width="236" height="100" as="geometry" />
        </mxCell>
        <mxCell id="XqgmH6ZxZvjZEFLUTs9h-9" value="DVlc" style="swimlane;fontStyle=1;align=center;verticalAlign=top;childLayout=stackLayout;horizontal=1;startSize=26;horizontalStack=0;resizeParent=1;resizeParentMax=0;resizeLast=0;collapsible=1;marginBottom=0;whiteSpace=wrap;html=1;" vertex="1" parent="WIyWlLk6GJQsqaUBKTNV-1">
          <mxGeometry x="20" y="610" width="220" height="280" as="geometry" />
        </mxCell>
        <mxCell id="XqgmH6ZxZvjZEFLUTs9h-10" value="# m_instance: libvlc_instance_t*&lt;div&gt;# m_media: libvlc_media_t*&lt;/div&gt;&lt;div&gt;# m_player: libvlc_media_player_t*&lt;/div&gt;" style="text;strokeColor=none;fillColor=none;align=left;verticalAlign=top;spacingLeft=4;spacingRight=4;overflow=hidden;rotatable=0;points=[[0,0.5],[1,0.5]];portConstraint=eastwest;whiteSpace=wrap;html=1;" vertex="1" parent="XqgmH6ZxZvjZEFLUTs9h-9">
          <mxGeometry y="26" width="220" height="54" as="geometry" />
        </mxCell>
        <mxCell id="XqgmH6ZxZvjZEFLUTs9h-11" value="" style="line;strokeWidth=1;fillColor=none;align=left;verticalAlign=middle;spacingTop=-1;spacingLeft=3;spacingRight=3;rotatable=0;labelPosition=right;points=[];portConstraint=eastwest;strokeColor=inherit;" vertex="1" parent="XqgmH6ZxZvjZEFLUTs9h-9">
          <mxGeometry y="80" width="220" height="8" as="geometry" />
        </mxCell>
        <mxCell id="XqgmH6ZxZvjZEFLUTs9h-12" value="+SetMedia(strUrl: string):int&lt;div&gt;+Play(): int&lt;/div&gt;&lt;div&gt;+SetHwin(hWnd: HWND): int&lt;/div&gt;&lt;div&gt;+Pause(): int&lt;/div&gt;&lt;div&gt;+Stop(): int&lt;/div&gt;&lt;div&gt;+GetPosition(): float&lt;/div&gt;&lt;div&gt;+SetPostion(pos: float)&lt;/div&gt;&lt;div&gt;+GetVolume():int&lt;/div&gt;&lt;div&gt;+SetVolume(volume:int)&lt;/div&gt;&lt;div&gt;+GetMediaInfo(): CSize&lt;/div&gt;&lt;div&gt;+DVlc()&lt;/div&gt;&lt;div&gt;+~DVlc()&lt;/div&gt;" style="text;strokeColor=none;fillColor=none;align=left;verticalAlign=top;spacingLeft=4;spacingRight=4;overflow=hidden;rotatable=0;points=[[0,0.5],[1,0.5]];portConstraint=eastwest;whiteSpace=wrap;html=1;" vertex="1" parent="XqgmH6ZxZvjZEFLUTs9h-9">
          <mxGeometry y="88" width="220" height="192" as="geometry" />
        </mxCell>
        <mxCell id="XqgmH6ZxZvjZEFLUTs9h-13" value="CVedioClientController" style="swimlane;fontStyle=1;align=center;verticalAlign=top;childLayout=stackLayout;horizontal=1;startSize=26;horizontalStack=0;resizeParent=1;resizeParentMax=0;resizeLast=0;collapsible=1;marginBottom=0;whiteSpace=wrap;html=1;" vertex="1" parent="WIyWlLk6GJQsqaUBKTNV-1">
          <mxGeometry x="350" y="620" width="160" height="220" as="geometry" />
        </mxCell>
        <mxCell id="XqgmH6ZxZvjZEFLUTs9h-14" value="&lt;div&gt;#m_vlc: DVlc&lt;/div&gt;#m_dlg: CVedioClientDlg" style="text;strokeColor=none;fillColor=none;align=left;verticalAlign=top;spacingLeft=4;spacingRight=4;overflow=hidden;rotatable=0;points=[[0,0.5],[1,0.5]];portConstraint=eastwest;whiteSpace=wrap;html=1;" vertex="1" parent="XqgmH6ZxZvjZEFLUTs9h-13">
          <mxGeometry y="26" width="160" height="44" as="geometry" />
        </mxCell>
        <mxCell id="XqgmH6ZxZvjZEFLUTs9h-15" value="" style="line;strokeWidth=1;fillColor=none;align=left;verticalAlign=middle;spacingTop=-1;spacingLeft=3;spacingRight=3;rotatable=0;labelPosition=right;points=[];portConstraint=eastwest;strokeColor=inherit;" vertex="1" parent="XqgmH6ZxZvjZEFLUTs9h-13">
          <mxGeometry y="70" width="160" height="8" as="geometry" />
        </mxCell>
        <mxCell id="XqgmH6ZxZvjZEFLUTs9h-21" value="Use" style="endArrow=open;endSize=12;dashed=1;html=1;rounded=0;entryX=0.984;entryY=0.061;entryDx=0;entryDy=0;entryPerimeter=0;" edge="1" parent="XqgmH6ZxZvjZEFLUTs9h-13" target="XqgmH6ZxZvjZEFLUTs9h-12">
          <mxGeometry width="160" relative="1" as="geometry">
            <mxPoint y="90" as="sourcePoint" />
            <mxPoint x="160" y="90" as="targetPoint" />
          </mxGeometry>
        </mxCell>
        <mxCell id="XqgmH6ZxZvjZEFLUTs9h-16" value="+Init(pWnd: CWnd*&amp;amp;):int&lt;div&gt;+Invoke():int&lt;/div&gt;&lt;div&gt;+SetMedia(strUrl: string):int&lt;/div&gt;&lt;div&gt;+VedioCtrl(cmd:int):float&lt;/div&gt;&lt;div&gt;+SetPosition(pos:float)&lt;/div&gt;&lt;div&gt;+SetWnd(hWnd:HWND)&lt;/div&gt;&lt;div&gt;+SetVolume(volume:int)&lt;/div&gt;&lt;div&gt;+GetMediaInfo():Csize&lt;/div&gt;" style="text;strokeColor=none;fillColor=none;align=left;verticalAlign=top;spacingLeft=4;spacingRight=4;overflow=hidden;rotatable=0;points=[[0,0.5],[1,0.5]];portConstraint=eastwest;whiteSpace=wrap;html=1;" vertex="1" parent="XqgmH6ZxZvjZEFLUTs9h-13">
          <mxGeometry y="78" width="160" height="142" as="geometry" />
        </mxCell>
        <mxCell id="XqgmH6ZxZvjZEFLUTs9h-19" value="Use" style="endArrow=open;endSize=12;dashed=1;html=1;rounded=0;entryX=0.5;entryY=0;entryDx=0;entryDy=0;" edge="1" parent="WIyWlLk6GJQsqaUBKTNV-1" target="XqgmH6ZxZvjZEFLUTs9h-13">
          <mxGeometry width="160" relative="1" as="geometry">
            <mxPoint x="430" y="490" as="sourcePoint" />
            <mxPoint x="590" y="490" as="targetPoint" />
          </mxGeometry>
        </mxCell>
        <mxCell id="XqgmH6ZxZvjZEFLUTs9h-20" value="Use" style="endArrow=open;endSize=12;dashed=1;html=1;rounded=0;" edge="1" parent="WIyWlLk6GJQsqaUBKTNV-1">
          <mxGeometry width="160" relative="1" as="geometry">
            <mxPoint x="510" y="710" as="sourcePoint" />
            <mxPoint x="590" y="710" as="targetPoint" />
          </mxGeometry>
        </mxCell>
      </root>
    </mxGraphModel>
  </diagram>
</mxfile>
